<svg width="429" height="120" viewBox="0 0 429 120" fill="none" xmlns="http://www.w3.org/2000/svg">
<path d="M429 64.2424V111.524C429 112.838 427.94 113.9 426.632 113.9H347.456C346.144 113.9 345.084 112.838 345.084 111.524V86.7812C345.084 86.5137 345.19 86.2579 345.378 86.069L354.163 77.2668V87.2613H360.328V71.089L369.239 62.1608C369.427 61.972 369.682 61.8657 369.946 61.8657H376.335V87.2613H382.5V61.8657H389.215C390.264 65.108 392.813 67.1345 397.796 69.2396L401.978 71.0025C407.413 73.2847 409.981 74.3156 409.981 78.0655C409.981 81.0836 408.587 82.2601 405.355 82.2601H389.133V87.2613H406.899C414.313 87.2613 416.441 84.1724 416.441 78.1403C416.441 71.2976 412.699 69.7551 405.285 66.5167L400.51 64.4588C398.562 63.6049 397.164 62.8573 396.237 61.8657H426.632C427.94 61.8657 429 62.9321 429 64.2424Z" fill="black" fill-opacity="0.9"/>
<path d="M38.9175 66.8789V86.4509C38.9175 86.864 38.5837 87.2024 38.1674 87.2024H2.74183C1.22993 87.2024 0.00469808 85.9747 0.00469808 84.4598V48.9635C0.00469808 48.5503 0.338496 48.2119 0.754759 48.2119H20.2799C20.4801 48.2119 20.6686 48.2906 20.81 48.4323L38.6975 66.3516C38.8389 66.4933 38.9175 66.6821 38.9175 66.8828V66.8789Z" fill="black" fill-opacity="0.9"/>
<path d="M38.9167 0.751559V20.3235C38.9167 20.5242 38.8382 20.7131 38.6968 20.8547L20.8132 38.7741C20.6718 38.9158 20.4833 38.9944 20.283 38.9944H0.750061C0.337724 38.9944 0 38.66 0 38.2429V2.7426C0 1.22768 1.22523 0 2.73713 0H38.1666C38.579 0 38.9167 0.334464 38.9167 0.751559Z" fill="black" fill-opacity="0.9"/>
<path d="M87.0251 2.7426V38.2429C87.0251 38.656 86.6913 38.9944 86.275 38.9944H66.7421C66.5418 38.9944 66.3533 38.9158 66.2119 38.7741L48.3283 20.8469C48.1869 20.7052 48.1084 20.5164 48.1084 20.3157V0.751559C48.1084 0.338399 48.4422 0 48.8584 0H84.288C85.7999 0 87.0251 1.22768 87.0251 2.7426Z" fill="black" fill-opacity="0.9"/>
<path d="M90.4158 48.2868L83.8106 79.7696C83.6613 80.4306 83.4414 80.9461 83.0762 80.9461C82.5618 80.9461 82.4126 80.4306 82.2673 79.8443L76.5417 51.596C75.8073 48.0625 72.7992 47.8421 71.4758 47.8421C70.1524 47.8421 67.219 48.0625 66.4846 51.596L60.6844 79.8443C60.5352 80.4306 60.3899 80.9461 59.8754 80.9461C59.5102 80.9461 59.2864 80.4306 59.1411 79.7696L52.5358 48.2868H46.5157L54.4444 83.4487C55.1041 86.2424 56.5728 87.714 59.6555 87.714C62.9581 87.714 64.796 85.9512 65.3104 83.5234L70.8161 56.4516C70.9614 55.7866 71.1813 55.1256 71.4758 55.1256C71.841 55.1256 71.9903 55.7866 72.1356 56.4516L77.5705 83.5234C78.0811 85.9512 80.0642 87.714 83.2961 87.714C86.3042 87.714 87.8475 86.2424 88.5073 83.4487L96.4359 48.2868H90.4158Z" fill="black" fill-opacity="0.9"/>
<path d="M117.243 66.5335L112.472 64.4756C108.435 62.7088 106.746 61.3828 106.746 57.4125C106.746 54.1741 108.065 53.2927 111.663 53.2927H126.2V48.2915H111.003C104.174 48.2915 100.577 50.7901 100.577 57.3377C100.577 63.5155 102.78 66.3131 109.754 69.2564L113.94 71.0192C119.371 73.3014 121.943 74.3324 121.943 78.0823C121.943 81.1003 120.545 82.2769 117.317 82.2769H101.091V87.2781H118.861C126.275 87.2781 128.403 84.1892 128.403 78.1571C128.403 71.3143 124.661 69.7719 117.243 66.5335Z" fill="black" fill-opacity="0.9"/>
<path d="M170.252 66.5335L165.481 64.4756C161.444 62.7088 159.755 61.3828 159.755 57.4125C159.755 54.1741 161.075 53.2927 164.672 53.2927H179.21V48.2915H164.012C157.187 48.2915 153.59 50.7901 153.59 57.3377C153.59 63.5155 155.789 66.3131 162.763 69.2564L166.949 71.0192C172.384 73.3014 174.953 74.3324 174.953 78.0823C174.953 81.1003 173.559 82.2769 170.327 82.2769H154.1V87.2781H171.87C179.284 87.2781 181.413 84.1892 181.413 78.1571C181.413 71.3143 177.67 69.7719 170.252 66.5335Z" fill="black" fill-opacity="0.9"/>
<path d="M203.752 47.8421C190.538 47.8421 186.721 52.9929 186.721 67.7053C186.721 82.4177 190.538 87.714 203.752 87.714C216.967 87.714 220.788 82.4925 220.788 67.7053C220.788 52.9181 216.967 47.8421 203.752 47.8421ZM203.752 82.7128C195.164 82.7128 193.181 78.7386 193.181 67.7053C193.181 56.672 195.164 52.8473 203.752 52.8473C212.341 52.8473 214.324 56.672 214.324 67.7053C214.324 78.7386 212.344 82.7128 203.752 82.7128Z" fill="black" fill-opacity="0.9"/>
<path d="M230.536 39.2014L227.838 41.9047V87.2736H234.004V39.2014H230.536Z" fill="black" fill-opacity="0.9"/>
<path d="M264.067 48.2915V79.7743C264.067 81.7614 263.258 82.2769 261.79 82.2769H255.919C250.044 82.2769 248.136 78.8181 248.136 73.5218V48.2915H241.97V74.6275C241.97 83.599 246.667 87.2781 255.11 87.2781H264.362C268.619 87.2781 270.307 84.9998 270.307 80.88V48.2915H264.067Z" fill="black" fill-opacity="0.9"/>
<path d="M294.792 53.2882V48.287H286.938V39.2014H283.47C282.414 40.256 281.825 40.8501 280.772 41.9047V48.287H275.632V53.2882H280.772V74.7686C280.772 82.6383 282.752 87.2736 292.078 87.2736H294.792V82.2724H294.132C288.407 82.2724 286.938 80.4309 286.938 74.3987V53.2882H294.792Z" fill="black" fill-opacity="0.9"/>
<path d="M300.067 48.2872V87.2738H306.236V48.2872H300.067ZM299.996 38.9065V43.0421C301.049 44.1006 301.642 44.6908 302.694 45.7453H306.311V38.9065H299.996Z" fill="black" fill-opacity="0.9"/>
<path d="M330.121 47.8421C316.907 47.8421 313.09 52.9929 313.09 67.7053C313.09 82.4177 316.907 87.714 330.121 87.714C343.336 87.714 347.157 82.4925 347.157 67.7053C347.157 52.9181 343.336 47.8421 330.121 47.8421ZM330.121 82.7128C321.533 82.7128 319.55 78.7386 319.55 67.7053C319.55 56.672 321.533 52.8473 330.121 52.8473C338.71 52.8473 340.697 56.672 340.697 67.7053C340.697 78.7386 338.713 82.7128 330.121 82.7128Z" fill="black" fill-opacity="0.9"/>
<path d="M369.653 48.2915H360.111C355.854 48.2915 354.165 50.6445 354.165 54.6896V77.2835L360.331 71.1058V55.7913C360.331 53.8082 361.139 53.2927 362.608 53.2927H368.919C374.731 53.2927 376.306 56.6767 376.337 61.8825H382.502V60.9421C382.502 51.9666 378.096 48.2915 369.653 48.2915Z" fill="black" fill-opacity="0.9"/>
<path d="M399.038 48.2915C392.213 48.2915 388.616 50.7901 388.616 57.3377C388.616 59.1005 388.797 60.5879 389.213 61.8825H396.235C395.233 60.8161 394.782 59.4704 394.782 57.4125C394.782 54.1741 396.105 53.2927 399.702 53.2927H414.236V48.2915H399.038Z" fill="black" fill-opacity="0.9"/>
<path d="M0.157813 119.79V107.154H8.10954V108.795H2.07143V112.645H7.69461V114.28H2.07143V118.149H8.18385V119.79H0.157813Z" fill="black"/>
<path d="M20.8966 110.473C20.8306 109.889 20.5581 109.437 20.0792 109.116C19.6002 108.791 18.9975 108.628 18.2708 108.628C17.7506 108.628 17.3006 108.711 16.9208 108.875C16.5409 109.036 16.2457 109.258 16.0352 109.542C15.8288 109.821 15.7255 110.14 15.7255 110.498C15.7255 110.798 15.7957 111.057 15.9361 111.275C16.0806 111.493 16.2685 111.677 16.4997 111.825C16.735 111.969 16.9868 112.09 17.2552 112.189C17.5236 112.283 17.7816 112.361 18.0293 112.423L19.2679 112.744C19.6725 112.843 20.0874 112.976 20.5127 113.145C20.9379 113.314 21.3322 113.536 21.6955 113.811C22.0588 114.087 22.352 114.428 22.5749 114.836C22.802 115.243 22.9155 115.73 22.9155 116.298C22.9155 117.014 22.7297 117.649 22.3582 118.204C21.9907 118.76 21.4561 119.198 20.7542 119.519C20.0565 119.84 19.2122 120 18.2213 120C17.2717 120 16.4501 119.85 15.7565 119.55C15.0629 119.249 14.52 118.824 14.1278 118.272C13.7355 117.717 13.5188 117.059 13.4775 116.298H15.3973C15.4345 116.755 15.5831 117.135 15.8432 117.439C16.1074 117.74 16.4439 117.964 16.8527 118.112C17.2655 118.256 17.7176 118.328 18.2089 118.328C18.7498 118.328 19.2307 118.244 19.6519 118.075C20.0771 117.902 20.4115 117.664 20.6551 117.359C20.8987 117.051 21.0205 116.691 21.0205 116.279C21.0205 115.905 20.9131 115.599 20.6985 115.36C20.4879 115.122 20.201 114.924 19.8376 114.768C19.4785 114.611 19.0718 114.474 18.6176 114.354L17.1189 113.947C16.1033 113.672 15.2982 113.266 14.7037 112.732C14.1133 112.197 13.8181 111.489 13.8181 110.609C13.8181 109.881 14.0163 109.246 14.4126 108.703C14.809 108.16 15.3457 107.738 16.0228 107.438C16.6999 107.133 17.4637 106.981 18.3142 106.981C19.1729 106.981 19.9305 107.131 20.587 107.431C21.2476 107.732 21.7678 108.145 22.1476 108.672C22.5274 109.194 22.7256 109.795 22.7421 110.473H20.8966Z" fill="black"/>
<path d="M27.8902 108.795V107.154H37.706V108.795H33.7488V119.79H31.8413V108.795H27.8902Z" fill="black"/>
<path d="M45.1022 107.154V119.79H43.1886V107.154H45.1022Z" fill="black"/>
<path d="M51.2025 107.154H53.5248L57.5626 116.977H57.7112L61.749 107.154H64.0714V119.79H62.2507V110.646H62.133L58.3925 119.772H56.8814L53.1409 110.64H53.0232V119.79H51.2025V107.154Z" fill="black"/>
<path d="M71.2384 119.79H69.2071L73.7713 107.154H75.9822L80.5464 119.79H78.5151L74.9294 109.449H74.8303L71.2384 119.79ZM71.579 114.842H78.1683V116.446H71.579V114.842Z" fill="black"/>
<path d="M83.5672 108.795V107.154H93.383V108.795H89.4257V119.79H87.5183V108.795H83.5672Z" fill="black"/>
<path d="M100.779 107.154V119.79H98.8656V107.154H100.779Z" fill="black"/>
<path d="M117.897 113.472C117.897 114.821 117.649 115.981 117.154 116.952C116.658 117.919 115.979 118.663 115.116 119.186C114.257 119.704 113.281 119.963 112.187 119.963C111.089 119.963 110.108 119.704 109.245 119.186C108.386 118.663 107.709 117.917 107.214 116.946C106.718 115.975 106.471 114.817 106.471 113.472C106.471 112.123 106.718 110.965 107.214 109.998C107.709 109.027 108.386 108.283 109.245 107.765C110.108 107.242 111.089 106.981 112.187 106.981C113.281 106.981 114.257 107.242 115.116 107.765C115.979 108.283 116.658 109.027 117.154 109.998C117.649 110.965 117.897 112.123 117.897 113.472ZM116.002 113.472C116.002 112.444 115.834 111.578 115.5 110.874C115.17 110.167 114.716 109.632 114.138 109.27C113.564 108.904 112.913 108.721 112.187 108.721C111.456 108.721 110.804 108.904 110.23 109.27C109.656 109.632 109.202 110.167 108.867 110.874C108.537 111.578 108.372 112.444 108.372 113.472C108.372 114.5 108.537 115.368 108.867 116.076C109.202 116.779 109.656 117.314 110.23 117.68C110.804 118.042 111.456 118.223 112.187 118.223C112.913 118.223 113.564 118.042 114.138 117.68C114.716 117.314 115.17 116.779 115.5 116.076C115.834 115.368 116.002 114.5 116.002 113.472Z" fill="black"/>
<path d="M133.833 107.154V119.79H132.074L125.627 110.523H125.51V119.79H123.596V107.154H125.367L131.82 116.434H131.938V107.154H133.833Z" fill="black"/>
<path d="M147.867 119.79V107.154H155.818V108.795H149.78V112.645H155.403V114.28H149.78V118.149H155.893V119.79H147.867Z" fill="black"/>
<path d="M171.925 107.154V119.79H170.166L163.719 110.523H163.601V119.79H161.688V107.154H163.459L169.912 116.434H170.03V107.154H171.925Z" fill="black"/>
<path d="M186.613 111.146C186.493 110.772 186.332 110.436 186.13 110.14C185.932 109.84 185.695 109.585 185.418 109.375C185.141 109.161 184.825 108.999 184.47 108.888C184.119 108.777 183.733 108.721 183.312 108.721C182.598 108.721 181.954 108.904 181.38 109.27C180.806 109.636 180.352 110.173 180.018 110.881C179.687 111.584 179.522 112.446 179.522 113.466C179.522 114.49 179.689 115.356 180.024 116.063C180.358 116.771 180.817 117.308 181.399 117.674C181.981 118.04 182.643 118.223 183.387 118.223C184.076 118.223 184.677 118.083 185.189 117.803C185.705 117.524 186.103 117.129 186.384 116.619C186.669 116.105 186.811 115.5 186.811 114.805L187.307 114.897H183.678V113.324H188.663V114.762C188.663 115.823 188.436 116.744 187.982 117.526C187.532 118.303 186.908 118.904 186.111 119.327C185.319 119.751 184.41 119.963 183.387 119.963C182.239 119.963 181.231 119.7 180.364 119.173C179.502 118.647 178.829 117.9 178.346 116.933C177.863 115.963 177.621 114.811 177.621 113.478C177.621 112.47 177.761 111.565 178.042 110.763C178.323 109.961 178.717 109.28 179.225 108.721C179.737 108.158 180.338 107.728 181.027 107.431C181.721 107.131 182.478 106.981 183.3 106.981C183.985 106.981 184.623 107.082 185.214 107.283C185.808 107.485 186.337 107.771 186.799 108.141C187.265 108.511 187.651 108.951 187.957 109.461C188.263 109.967 188.469 110.529 188.576 111.146H186.613Z" fill="black"/>
<path d="M196.319 107.154V119.79H194.406V107.154H196.319Z" fill="black"/>
<path d="M212.656 107.154V119.79H210.898L204.451 110.523H204.333V119.79H202.42V107.154H204.191L210.644 116.434H210.761V107.154H212.656Z" fill="black"/>
<path d="M218.761 119.79V107.154H226.713V108.795H220.675V112.645H226.298V114.28H220.675V118.149H226.787V119.79H218.761Z" fill="black"/>
</svg>
